<svg width="172" height="38" viewBox="0 0 172 38" fill="none" xmlns="http://www.w3.org/2000/svg">
<path d="M51.6685 26V14.272H55.0125C55.8872 14.272 56.6552 14.384 57.3165 14.608C57.9778 14.8213 58.4898 15.1787 58.8525 15.68C59.2152 16.1813 59.3965 16.8587 59.3965 17.712C59.3965 18.5333 59.2152 19.2107 58.8525 19.744C58.4898 20.2773 57.9832 20.6773 57.3325 20.944C56.6818 21.2 55.9298 21.328 55.0765 21.328H53.1405V26H51.6685ZM53.1405 20.128H54.8845C55.9085 20.128 56.6712 19.936 57.1725 19.552C57.6738 19.168 57.9245 18.5547 57.9245 17.712C57.9245 16.8587 57.6632 16.272 57.1405 15.952C56.6285 15.632 55.8552 15.472 54.8205 15.472H53.1405V20.128ZM61.6495 26V17.312H62.8495L62.9935 18.896H63.0255C63.3242 18.3413 63.6868 17.904 64.1135 17.584C64.5508 17.2533 65.0095 17.088 65.4895 17.088C65.6922 17.088 65.8628 17.104 66.0015 17.136C66.1508 17.1573 66.2895 17.2053 66.4175 17.28L66.1455 18.544C65.9962 18.5013 65.8628 18.4693 65.7455 18.448C65.6282 18.416 65.4788 18.4 65.2975 18.4C64.9455 18.4 64.5668 18.5547 64.1615 18.864C63.7562 19.1627 63.4095 19.68 63.1215 20.416V26H61.6495ZM71.0099 26.208C70.3059 26.208 69.6445 26.032 69.0259 25.68C68.4072 25.3173 67.9112 24.8 67.5379 24.128C67.1752 23.4453 66.9939 22.624 66.9939 21.664C66.9939 20.6933 67.1752 19.872 67.5379 19.2C67.9112 18.5173 68.4072 17.9947 69.0259 17.632C69.6445 17.2693 70.3059 17.088 71.0099 17.088C71.5432 17.088 72.0499 17.1893 72.5299 17.392C73.0205 17.5947 73.4525 17.8933 73.8259 18.288C74.1992 18.6827 74.4925 19.1627 74.7059 19.728C74.9192 20.2933 75.0259 20.9387 75.0259 21.664C75.0259 22.624 74.8392 23.4453 74.4659 24.128C74.0925 24.8 73.6019 25.3173 72.9939 25.68C72.3859 26.032 71.7245 26.208 71.0099 26.208ZM71.0099 24.992C71.5112 24.992 71.9485 24.8533 72.3219 24.576C72.7059 24.2987 73.0045 23.9093 73.2179 23.408C73.4312 22.9067 73.5379 22.3253 73.5379 21.664C73.5379 20.992 73.4312 20.4053 73.2179 19.904C73.0045 19.4027 72.7059 19.0133 72.3219 18.736C71.9485 18.4587 71.5112 18.32 71.0099 18.32C70.5085 18.32 70.0659 18.4587 69.6819 18.736C69.3085 19.0133 69.0152 19.4027 68.8019 19.904C68.5992 20.4053 68.4979 20.992 68.4979 21.664C68.4979 22.3253 68.5992 22.9067 68.8019 23.408C69.0152 23.9093 69.3085 24.2987 69.6819 24.576C70.0659 24.8533 70.5085 24.992 71.0099 24.992Z" fill="#4B4B4B"/>
<path d="M75.801 26L79.593 14.144H82.393L86.185 26H83.689L82.009 19.824C81.8277 19.2053 81.6517 18.5653 81.481 17.904C81.321 17.232 81.1503 16.5813 80.969 15.952H80.905C80.7557 16.592 80.5903 17.2427 80.409 17.904C80.2383 18.5653 80.0677 19.2053 79.897 19.824L78.201 26H75.801ZM78.153 22.96V21.12H83.785V22.96H78.153ZM90.1421 26.224C89.5448 26.224 88.9368 26.1067 88.3181 25.872C87.7101 25.6373 87.1821 25.3387 86.7341 24.976L87.8061 23.488C88.2008 23.7867 88.5901 24.0267 88.9741 24.208C89.3688 24.3787 89.7794 24.464 90.2061 24.464C90.6541 24.464 90.9794 24.3787 91.1821 24.208C91.3954 24.0267 91.5021 23.7973 91.5021 23.52C91.5021 23.296 91.4114 23.1093 91.2301 22.96C91.0488 22.8 90.8141 22.6613 90.5261 22.544C90.2381 22.416 89.9394 22.2933 89.6301 22.176C89.2568 22.0267 88.8834 21.8453 88.5101 21.632C88.1474 21.4187 87.8434 21.1467 87.5981 20.816C87.3528 20.4747 87.2301 20.0533 87.2301 19.552C87.2301 19.0187 87.3688 18.5493 87.6461 18.144C87.9234 17.728 88.3074 17.4027 88.7981 17.168C89.2994 16.9333 89.8914 16.816 90.5741 16.816C91.2248 16.816 91.8008 16.928 92.3021 17.152C92.8141 17.376 93.2514 17.632 93.6141 17.92L92.5581 19.344C92.2381 19.1093 91.9181 18.9227 91.5981 18.784C91.2888 18.6453 90.9688 18.576 90.6381 18.576C90.2221 18.576 89.9181 18.656 89.7261 18.816C89.5341 18.976 89.4381 19.184 89.4381 19.44C89.4381 19.6533 89.5181 19.8347 89.6781 19.984C89.8381 20.1227 90.0568 20.2453 90.3341 20.352C90.6114 20.4587 90.9048 20.5707 91.2141 20.688C91.5128 20.7947 91.8061 20.9227 92.0941 21.072C92.3928 21.2107 92.6648 21.3813 92.9101 21.584C93.1554 21.7867 93.3474 22.0373 93.4861 22.336C93.6354 22.624 93.7101 22.976 93.7101 23.392C93.7101 23.9147 93.5714 24.3947 93.2941 24.832C93.0274 25.2587 92.6274 25.6 92.0941 25.856C91.5714 26.1013 90.9208 26.224 90.1421 26.224ZM98.064 26.224C97.4667 26.224 96.8587 26.1067 96.24 25.872C95.632 25.6373 95.104 25.3387 94.656 24.976L95.728 23.488C96.1227 23.7867 96.512 24.0267 96.896 24.208C97.2907 24.3787 97.7013 24.464 98.128 24.464C98.576 24.464 98.9013 24.3787 99.104 24.208C99.3173 24.0267 99.424 23.7973 99.424 23.52C99.424 23.296 99.3333 23.1093 99.152 22.96C98.9707 22.8 98.736 22.6613 98.448 22.544C98.16 22.416 97.8613 22.2933 97.552 22.176C97.1787 22.0267 96.8053 21.8453 96.432 21.632C96.0693 21.4187 95.7653 21.1467 95.52 20.816C95.2747 20.4747 95.152 20.0533 95.152 19.552C95.152 19.0187 95.2907 18.5493 95.568 18.144C95.8453 17.728 96.2293 17.4027 96.72 17.168C97.2213 16.9333 97.8133 16.816 98.496 16.816C99.1467 16.816 99.7227 16.928 100.224 17.152C100.736 17.376 101.173 17.632 101.536 17.92L100.48 19.344C100.16 19.1093 99.84 18.9227 99.52 18.784C99.2107 18.6453 98.8907 18.576 98.56 18.576C98.144 18.576 97.84 18.656 97.648 18.816C97.456 18.976 97.36 19.184 97.36 19.44C97.36 19.6533 97.44 19.8347 97.6 19.984C97.76 20.1227 97.9787 20.2453 98.256 20.352C98.5333 20.4587 98.8267 20.5707 99.136 20.688C99.4347 20.7947 99.728 20.9227 100.016 21.072C100.315 21.2107 100.587 21.3813 100.832 21.584C101.077 21.7867 101.269 22.0373 101.408 22.336C101.557 22.624 101.632 22.976 101.632 23.392C101.632 23.9147 101.493 24.3947 101.216 24.832C100.949 25.2587 100.549 25.6 100.016 25.856C99.4933 26.1013 98.8427 26.224 98.064 26.224ZM103.426 26V17.04H105.778V26H103.426ZM104.61 15.584C104.194 15.584 103.863 15.472 103.618 15.248C103.373 15.0133 103.25 14.6987 103.25 14.304C103.25 13.92 103.373 13.6107 103.618 13.376C103.863 13.1413 104.194 13.024 104.61 13.024C105.005 13.024 105.33 13.1413 105.586 13.376C105.842 13.6107 105.97 13.92 105.97 14.304C105.97 14.6987 105.842 15.0133 105.586 15.248C105.33 15.472 105.005 15.584 104.61 15.584ZM110.845 26.224C110.248 26.224 109.64 26.1067 109.021 25.872C108.413 25.6373 107.885 25.3387 107.437 24.976L108.509 23.488C108.904 23.7867 109.293 24.0267 109.677 24.208C110.072 24.3787 110.483 24.464 110.909 24.464C111.357 24.464 111.683 24.3787 111.885 24.208C112.099 24.0267 112.205 23.7973 112.205 23.52C112.205 23.296 112.115 23.1093 111.933 22.96C111.752 22.8 111.517 22.6613 111.229 22.544C110.941 22.416 110.643 22.2933 110.333 22.176C109.96 22.0267 109.587 21.8453 109.213 21.632C108.851 21.4187 108.547 21.1467 108.301 20.816C108.056 20.4747 107.933 20.0533 107.933 19.552C107.933 19.0187 108.072 18.5493 108.349 18.144C108.627 17.728 109.011 17.4027 109.501 17.168C110.003 16.9333 110.595 16.816 111.277 16.816C111.928 16.816 112.504 16.928 113.005 17.152C113.517 17.376 113.955 17.632 114.317 17.92L113.261 19.344C112.941 19.1093 112.621 18.9227 112.301 18.784C111.992 18.6453 111.672 18.576 111.341 18.576C110.925 18.576 110.621 18.656 110.429 18.816C110.237 18.976 110.141 19.184 110.141 19.44C110.141 19.6533 110.221 19.8347 110.381 19.984C110.541 20.1227 110.76 20.2453 111.037 20.352C111.315 20.4587 111.608 20.5707 111.917 20.688C112.216 20.7947 112.509 20.9227 112.797 21.072C113.096 21.2107 113.368 21.3813 113.613 21.584C113.859 21.7867 114.051 22.0373 114.189 22.336C114.339 22.624 114.413 22.976 114.413 23.392C114.413 23.9147 114.275 24.3947 113.997 24.832C113.731 25.2587 113.331 25.6 112.797 25.856C112.275 26.1013 111.624 26.224 110.845 26.224ZM119.034 26.224C118.33 26.224 117.759 26.0853 117.322 25.808C116.885 25.52 116.57 25.1253 116.378 24.624C116.186 24.1227 116.09 23.5413 116.09 22.88V18.896H114.826V17.152L116.218 17.04L116.49 14.624H118.426V17.04H120.65V18.896H118.426V22.864C118.426 23.376 118.533 23.7547 118.746 24C118.959 24.2453 119.263 24.368 119.658 24.368C119.807 24.368 119.962 24.3467 120.122 24.304C120.282 24.2613 120.421 24.2187 120.538 24.176L120.938 25.888C120.693 25.9627 120.41 26.0373 120.09 26.112C119.781 26.1867 119.429 26.224 119.034 26.224ZM125.986 26.224C125.154 26.224 124.402 26.0373 123.73 25.664C123.058 25.2907 122.519 24.752 122.114 24.048C121.719 23.344 121.522 22.5013 121.522 21.52C121.522 20.7947 121.634 20.144 121.858 19.568C122.093 18.992 122.407 18.5013 122.802 18.096C123.207 17.68 123.655 17.3653 124.146 17.152C124.647 16.928 125.165 16.816 125.698 16.816C126.519 16.816 127.207 17.0027 127.762 17.376C128.317 17.7387 128.733 18.2453 129.01 18.896C129.298 19.536 129.442 20.272 129.442 21.104C129.442 21.3173 129.431 21.5253 129.41 21.728C129.389 21.92 129.362 22.0747 129.33 22.192H123.81C123.874 22.672 124.018 23.0773 124.242 23.408C124.466 23.7387 124.754 23.9893 125.106 24.16C125.458 24.32 125.858 24.4 126.306 24.4C126.669 24.4 127.01 24.352 127.33 24.256C127.65 24.1493 127.975 23.9947 128.306 23.792L129.106 25.232C128.669 25.5307 128.178 25.7707 127.634 25.952C127.09 26.1333 126.541 26.224 125.986 26.224ZM123.762 20.608H127.426C127.426 20.0107 127.287 19.536 127.01 19.184C126.743 18.8213 126.317 18.64 125.73 18.64C125.421 18.64 125.127 18.7147 124.85 18.864C124.573 19.0027 124.338 19.2213 124.146 19.52C123.954 19.808 123.826 20.1707 123.762 20.608ZM122.466 14.928L124.466 12.512H126.866L128.85 14.928L127.938 15.776L125.698 14.016H125.618L123.394 15.776L122.466 14.928ZM131.379 26V17.04H133.299L133.475 18.224H133.523C133.918 17.84 134.35 17.5093 134.819 17.232C135.288 16.9547 135.827 16.816 136.435 16.816C137.406 16.816 138.11 17.136 138.547 17.776C138.984 18.4053 139.203 19.2853 139.203 20.416V26H136.851V20.704C136.851 20.0107 136.75 19.5253 136.547 19.248C136.355 18.9707 136.035 18.832 135.587 18.832C135.224 18.832 134.904 18.9173 134.627 19.088C134.36 19.2587 134.062 19.5093 133.731 19.84V26H131.379ZM145.437 26.224C144.616 26.224 143.874 26.0373 143.213 25.664C142.552 25.2907 142.029 24.7573 141.645 24.064C141.261 23.36 141.069 22.512 141.069 21.52C141.069 20.528 141.277 19.6853 141.693 18.992C142.12 18.288 142.68 17.7493 143.373 17.376C144.077 17.0027 144.834 16.816 145.645 16.816C146.2 16.816 146.69 16.912 147.117 17.104C147.544 17.2853 147.922 17.5253 148.253 17.824L147.133 19.312C146.92 19.12 146.701 18.976 146.477 18.88C146.253 18.784 146.018 18.736 145.773 18.736C145.314 18.736 144.909 18.8533 144.557 19.088C144.216 19.312 143.949 19.632 143.757 20.048C143.576 20.464 143.485 20.9547 143.485 21.52C143.485 22.0853 143.576 22.576 143.757 22.992C143.949 23.408 144.21 23.7333 144.541 23.968C144.882 24.192 145.266 24.304 145.693 24.304C146.013 24.304 146.322 24.2347 146.621 24.096C146.92 23.9573 147.192 23.7867 147.437 23.584L148.365 25.136C147.938 25.5093 147.464 25.7867 146.941 25.968C146.429 26.1387 145.928 26.224 145.437 26.224ZM150.066 26V17.04H152.418V26H150.066ZM151.25 15.584C150.834 15.584 150.504 15.472 150.258 15.248C150.013 15.0133 149.89 14.6987 149.89 14.304C149.89 13.92 150.013 13.6107 150.258 13.376C150.504 13.1413 150.834 13.024 151.25 13.024C151.645 13.024 151.97 13.1413 152.226 13.376C152.482 13.6107 152.61 13.92 152.61 14.304C152.61 14.6987 152.482 15.0133 152.226 15.248C151.97 15.472 151.645 15.584 151.25 15.584ZM157.118 26.224C156.595 26.224 156.131 26.112 155.726 25.888C155.331 25.6533 155.022 25.3333 154.798 24.928C154.585 24.5227 154.478 24.064 154.478 23.552C154.478 22.6027 154.889 21.8667 155.71 21.344C156.531 20.8107 157.838 20.448 159.63 20.256C159.619 19.9573 159.566 19.696 159.47 19.472C159.374 19.2373 159.214 19.0507 158.99 18.912C158.777 18.7733 158.483 18.704 158.11 18.704C157.694 18.704 157.283 18.784 156.878 18.944C156.473 19.104 156.062 19.312 155.646 19.568L154.814 18C155.166 17.776 155.539 17.5787 155.934 17.408C156.329 17.2373 156.745 17.0987 157.182 16.992C157.619 16.8747 158.073 16.816 158.542 16.816C159.299 16.816 159.934 16.9653 160.446 17.264C160.958 17.5627 161.342 18.0053 161.598 18.592C161.854 19.1787 161.982 19.904 161.982 20.768V26H160.062L159.902 25.04H159.822C159.438 25.3813 159.022 25.664 158.574 25.888C158.126 26.112 157.641 26.224 157.118 26.224ZM157.902 24.384C158.233 24.384 158.531 24.3093 158.798 24.16C159.075 24 159.353 23.7813 159.63 23.504V21.712C158.905 21.7973 158.329 21.92 157.902 22.08C157.475 22.24 157.171 22.432 156.99 22.656C156.809 22.8693 156.718 23.1093 156.718 23.376C156.718 23.728 156.825 23.984 157.038 24.144C157.262 24.304 157.55 24.384 157.902 24.384Z" fill="#F26363"/>
<g filter="url(#filter0_d_22_262)">
<circle cx="19" cy="19" r="16" fill="#F26363"/>
</g>
<g clip-path="url(#clip0_22_262)">
<path d="M12.9998 18.3333C12.2665 18.3333 11.6665 18.9333 11.6665 19.6667V24.3333C11.6665 25.0667 12.2665 25.6667 12.9998 25.6667C13.7332 25.6667 14.3332 25.0667 14.3332 24.3333V19.6667C14.3332 18.9333 13.7332 18.3333 12.9998 18.3333Z" fill="white"/>
<path d="M17.6665 14.5333C17.6665 13.3 18.6332 12.3333 19.8665 12.3333C20.5598 12.3333 21.2332 12.66 21.6665 13.1667C22.0998 12.66 22.7732 12.3333 23.4665 12.3333C24.6998 12.3333 25.6665 13.3 25.6665 14.5333C25.6665 15.9333 23.9998 17.54 22.1132 19.26C21.8598 19.4933 21.4665 19.4933 21.2132 19.26C19.3332 17.54 17.6665 15.9333 17.6665 14.5333Z" fill="white"/>
<path d="M24.3265 22.3333H19.7732C19.6998 22.3333 19.6265 22.32 19.5532 22.2933L18.5732 21.9533C18.3998 21.8933 18.3132 21.7067 18.3732 21.5333C18.4332 21.36 18.6265 21.2667 18.7998 21.3333L19.5465 21.62C19.6198 21.6467 19.7065 21.6667 19.7865 21.6667H21.5398C21.9732 21.6667 22.3265 21.3133 22.3265 20.88C22.3265 20.5533 22.1198 20.26 21.8132 20.14L17.1998 18.42C17.0532 18.36 16.8932 18.3333 16.7332 18.3333H15.6665V24.3467L19.9132 25.5533C20.1865 25.6333 20.4798 25.62 20.7465 25.52L25.6665 23.6667C25.6665 22.9267 25.0665 22.3333 24.3265 22.3333Z" fill="white"/>
</g>
<defs>
<filter id="filter0_d_22_262" x="0.825726" y="0.825726" width="36.3485" height="36.3485" filterUnits="userSpaceOnUse" color-interpolation-filters="sRGB">
<feFlood flood-opacity="0" result="BackgroundImageFix"/>
<feColorMatrix in="SourceAlpha" type="matrix" values="0 0 0 0 0 0 0 0 0 0 0 0 0 0 0 0 0 0 127 0" result="hardAlpha"/>
<feOffset/>
<feGaussianBlur stdDeviation="1.08714"/>
<feComposite in2="hardAlpha" operator="out"/>
<feColorMatrix type="matrix" values="0 0 0 0 0 0 0 0 0 0 0 0 0 0 0 0 0 0 0.25 0"/>
<feBlend mode="normal" in2="BackgroundImageFix" result="effect1_dropShadow_22_262"/>
<feBlend mode="normal" in="SourceGraphic" in2="effect1_dropShadow_22_262" result="shape"/>
</filter>
<clipPath id="clip0_22_262">
<rect width="16" height="16" fill="white" transform="translate(11 11)"/>
</clipPath>
</defs>
</svg>
